<?xml version="1.0" encoding="utf-8"?>
<!-- Generator: Adobe Illustrator 26.2.1, SVG Export Plug-In . SVG Version: 6.00 Build 0)  -->
<svg version="1.1" id="Layer_1" xmlns="http://www.w3.org/2000/svg" xmlns:xlink="http://www.w3.org/1999/xlink" x="0px" y="0px"
	 viewBox="0 0 1500 500" style="enable-background:new 0 0 1500 500;" xml:space="preserve">
<style type="text/css">
	.st0{fill:#1E90FF;stroke:#1E90FF;stroke-width:4;stroke-miterlimit:10;}
</style>
<g>
	<path class="st0" d="M354.5,275.9v25.7h-75.9V198.4h26.5v77.5H354.5z M351.8,278.6h-49.4v-77.5h-21v97.7h70.4V278.6z"/>
	<path class="st0" d="M496.4,250c0,30-25.1,53.6-54.8,53.6c-29.6,0-54.8-23.8-54.8-53.6s25.2-53.6,54.8-53.6
		C471.4,196.4,496.4,220,496.4,250z M493.7,250c0-28.5-23.9-50.8-52-50.8c-27.9,0-52,22.6-52,50.8s24.2,50.8,52,50.8
		C469.8,300.8,493.7,278.5,493.7,250z M472.3,249.9c0,16.6-13.1,30.8-30,30.8c-17.3,0-31.3-13.1-31.3-30.6
		c0-16.9,13.7-30.6,30.6-30.6C458.7,219.4,472.3,232.8,472.3,249.9z M469.5,250c0-15.6-12.3-27.9-27.9-27.9
		c-15.4,0-27.9,12.4-27.9,27.9s12.4,27.9,27.9,27.9C457.2,277.9,469.5,265.6,469.5,250z"/>
	<path class="st0" d="M634.2,241.3v60.3h-21v-9.4c-5.5,8.2-16.4,11.4-25.9,11.4c-29.6,0-54.8-23.6-54.8-53.6s25.2-53.6,54.8-53.6
		c17,0,33.4,8.1,43.7,21.5v0.1l-21.6,14.7h-0.1c-5.4-6.7-13.3-10.6-21.9-10.6c-15.4,0-27.9,12.4-27.9,27.9
		c0,15.6,12.3,27.9,27.9,27.9c8.8,0,16.9-4.4,21.9-11.6v-2.8h-24.9v-22.2H634.2z M631.5,244.1h-44.4v16.6h24.9v6.3l-0.5,0.7
		c-6.1,8.1-13.7,12.9-24.2,12.9c-16.9,0-30.6-13.7-30.6-30.6s13.7-30.6,30.6-30.6c8.4,0,16.8,3.4,22.4,9.8l17.3-11.6
		c-9.9-11.5-24.6-18.3-39.7-18.3c-28.1,0-52,22.4-52,50.8s23.9,50.8,52,50.8c8.2,0,20.9-2.6,26.4-14.5h2.2v12.5h15.4V244.1z"/>
	<path class="st0" d="M704.3,198.4v103.2h-26.7V198.4H704.3z M701.6,201.2h-21.1v97.7h21.1V201.2z"/>
	<path class="st0" d="M849.1,273.9v0.1c-9.4,18.2-28.5,29.6-49,29.6c-29.6,0-54.8-23.8-54.8-53.6s25.2-53.6,54.8-53.6
		c20.5,0,39.3,11.4,48.8,29.4v0.1l-24.2,10.8h-0.1c-4.9-9.1-14.3-14.7-24.6-14.7c-15.4,0-27.9,12.4-27.9,27.9s12.4,27.9,27.9,27.9
		c10.3,0,19.7-5.4,24.6-14.5v-0.1L849.1,273.9z M845.3,275.2l-19.4-8.4c-5.7,8.8-15.3,13.9-25.7,13.9c-16.9,0-30.6-13.7-30.6-30.6
		s13.7-30.6,30.6-30.6c10.4,0,20.1,5.1,25.7,13.9l19.3-8.6c-9.5-15.8-26.5-25.5-45-25.5c-28,0-52,22.6-52,50.8s24,50.8,52,50.8
		C818.6,300.8,835.9,291.2,845.3,275.2z"/>
	<path class="st0" d="M981.9,198.4v58.1c0,28.8-18.9,47.1-47.5,47.1c-28.8,0-47.4-18.2-47.4-47.1v-58.1h26.7v56.5
		c0,13.7,6.1,23,20.7,23s21-9.1,21-23v-56.5H981.9z M979.2,201.2h-21v53.7c0,15.3-7.5,25.7-23.8,25.7s-23.5-10.4-23.5-25.7v-53.7
		h-21.1v55.3c0,27.3,17.4,44.4,44.6,44.4c27.1,0,44.7-17,44.7-44.4V201.2z"/>
	<path class="st0" d="M1102.3,275.9v25.7h-75.9V198.4h26.5v77.5H1102.3z M1099.5,278.6h-49.4v-77.5h-21v97.7h70.4V278.6z"/>
	<path class="st0" d="M1168.7,224.3v14.5h43.3v24.2h-43.3v12.9h52.7v25.7H1142V198.4h79.3v25.9H1168.7z M1165.9,241.6v-20.1h52.7
		v-20.3h-73.8v97.7h73.8v-20.2h-52.7v-18.5h43.3v-18.6H1165.9z"/>
</g>
</svg>
