<?xml version="1.0" encoding="utf-8"?>
<!-- Generator: Adobe Illustrator 26.2.1, SVG Export Plug-In . SVG Version: 6.00 Build 0)  -->
<svg version="1.1" id="Layer_1" xmlns="http://www.w3.org/2000/svg" xmlns:xlink="http://www.w3.org/1999/xlink" x="0px" y="0px"
	 viewBox="0 0 1211 270.7" style="enable-background:new 0 0 1211 270.7;" xml:space="preserve">
<style type="text/css">
	.st0{fill:#F7DF1E;}
	.st1{fill:#53C1DE;}
	.st2{fill:#FFFFFF;}
	.st3{fill:#E44F26;}
	.st4{fill:#F1662A;}
	.st5{fill:#EBEBEB;}
	.st6{fill:#1572B6;}
	.st7{fill:#33A9DC;}
	.st8{fill:#5C8DBC;}
	.st9{fill:#1A4674;}
	.st10{fill:#1B598E;}
</style>
<g>
	<g>
		<path class="st0" d="M751.3,167.1h-47.7c-5.5,0-10-4.5-10-10v-47.7c0-5.5,4.5-10,10-10h47.7c5.5,0,10,4.5,10,10v47.7
			C761.3,162.6,756.8,167.1,751.3,167.1z"/>
		<path d="M711.4,156l5.2-3.1c1,1.8,1.9,3.3,4.1,3.3c2.1,0,3.4-0.8,3.4-4v-21.7h6.4v21.7c0,6.6-3.9,9.6-9.5,9.6
			C715.9,161.8,712.9,159.1,711.4,156 M733.9,155.3l5.2-3c1.4,2.2,3.1,3.9,6.3,3.9c2.6,0,4.3-1.3,4.3-3.1c0-2.2-1.7-3-4.6-4.2
			l-1.6-0.7c-4.6-2-7.6-4.4-7.6-9.6c0-4.8,3.6-8.4,9.3-8.4c4,0,7,1.4,9,5.1l-5,3.2c-1.1-2-2.3-2.7-4.1-2.7c-1.9,0-3,1.2-3,2.7
			c0,1.9,1.2,2.7,3.9,3.9l1.6,0.7c5.4,2.3,8.5,4.7,8.5,10c0,5.7-4.5,8.9-10.5,8.9C739.6,161.8,735.8,159,733.9,155.3"/>
	</g>
	<g>
		<path class="st1" d="M871.8,121.3c-0.8-0.2-1.7-0.6-2.3-0.8c0.1-0.6,0.2-1.1,0.3-1.7c1.8-8.9,0.7-16.2-3.4-18.6
			c-3.9-2.2-10.3,0.1-17,5.8c-0.7,0.6-1.2,1.1-1.9,1.8c-0.3-0.3-0.8-0.8-1.2-1.1c-6.9-6.2-13.8-8.7-17.8-6.3
			c-3.9,2.2-5.1,9.1-3.4,17.6c0.1,0.9,0.3,1.7,0.6,2.6c-1,0.2-1.9,0.6-2.8,0.9c-8.1,2.8-13.2,7.2-13.2,11.7c0,4.8,5.6,9.4,13.9,12.2
			c0.7,0.2,1.3,0.3,2,0.7c-0.2,0.9-0.3,1.8-0.7,2.7c-1.6,8.3-0.3,15,3.6,17.2c4,2.2,10.9-0.1,17.6-5.9c0.6-0.6,1-0.9,1.6-1.3
			c0.7,0.7,1.3,1.2,2,1.9c6.4,5.6,12.9,7.8,16.8,5.6c4-2.2,5.4-9.4,3.7-18.1c-0.1-0.7-0.2-1.2-0.6-2c0.6-0.1,0.9-0.2,1.3-0.3
			c8.7-2.9,14.3-7.6,14.3-12.2C885.1,128.3,879.9,124.1,871.8,121.3L871.8,121.3z"/>
		<path class="st2" d="M869.9,142.2c-0.3,0.1-0.9,0.2-1.2,0.3c-1-3-2.2-6.3-3.8-9.6c1.6-3.1,2.8-6.4,3.7-9.4
			c0.8,0.2,1.6,0.6,2.2,0.8c7,2.3,11.2,6,11.2,8.7C882,135.8,877.4,139.7,869.9,142.2L869.9,142.2z M866.7,148.3
			c0.8,3.8,0.9,7.3,0.3,10c-0.6,2.3-1.3,4-2.3,4.8c-2.3,1.3-7.6-0.3-13.1-5.1c-0.7-0.6-1.2-1.1-1.9-1.8c2.1-2.2,4.1-5.1,6.4-8.1
			c3.7-0.3,7.2-0.9,10.2-1.6C866.4,147.2,866.6,147.8,866.7,148.3L866.7,148.3z M835.2,162.9c-2.2,0.8-4.1,0.9-5.4,0.2
			c-2.3-1.3-3.2-6.7-2-13.9c0.1-0.9,0.3-1.7,0.6-2.6c3,0.7,6.6,1.1,10.2,1.6c2,2.9,4.4,5.7,6.6,8.1c-0.6,0.6-0.9,0.9-1.3,1.2
			C840.8,160.1,837.9,161.8,835.2,162.9L835.2,162.9z M824.2,142.2c-3.7-1.2-6.8-2.9-8.8-4.8c-1.9-1.6-2.8-3.1-2.8-4.5
			c0-2.8,4-6.3,11-8.7c0.9-0.2,1.8-0.6,2.6-0.8c0.9,3,2.1,6.3,3.7,9.6c-1.6,3.2-2.8,6.7-3.7,9.7
			C825.6,142.5,824.9,142.4,824.2,142.2z M828,117.2c-1.3-7.3-0.6-12.9,1.9-14.2c2.6-1.3,8.2,0.7,14.1,5.9c0.3,0.3,0.8,0.7,1.1,1
			c-2.1,2.2-4.4,5.1-6.4,7.9c-3.6,0.3-7,0.9-10.1,1.6C828.3,118.7,828.2,117.9,828,117.2L828,117.2z M860.7,125.3
			c-0.8-1.2-1.6-2.6-2.2-3.8c2.3,0.2,4.8,0.8,6.9,1.1c-0.7,2-1.3,4.1-2.3,6.6C862.2,127.9,861.4,126.5,860.7,125.3L860.7,125.3z
			 M847.3,112.4c1.6,1.7,2.9,3.4,4.5,5.4c-2.9-0.1-6-0.1-8.9,0C844.3,115.8,845.8,113.9,847.3,112.4L847.3,112.4z M833.9,125.3
			c-0.8,1.2-1.3,2.6-2.1,3.9c-0.9-2.1-1.8-4.5-2.3-6.6c2.1-0.6,4.5-0.9,6.9-1.1C835.4,122.7,834.8,124.1,833.9,125.3z M836.3,144.7
			c-2.3-0.2-4.9-0.7-7-1.1c0.7-2.1,1.6-4.4,2.3-6.7c0.7,1.2,1.3,2.7,2.1,3.9C834.8,142.2,835.4,143.4,836.3,144.7z M847.4,153.7
			c-1.6-1.6-3-3.4-4.7-5.4c1.3,0,2.9,0.1,4.5,0.1s3,0,4.7-0.1C850.3,150.4,848.8,152.3,847.4,153.7z M862.8,136.7
			c1,2.2,1.9,4.7,2.6,6.7c-2.1,0.6-4.7,0.9-7,1.1c0.8-1.2,1.6-2.6,2.2-3.8C861.4,139.5,862.2,138.2,862.8,136.7L862.8,136.7z
			 M857.8,139.2c-1.1,2-2.2,3.9-3.6,5.9c-2.2,0.1-4.7,0.2-6.9,0.2s-4.7-0.1-6.9-0.2c-1.2-1.9-2.6-3.8-3.7-5.9c-1.1-2-2.1-4-3.1-6.2
			c1-2,2-4,3.1-6.2l0,0c1.1-2,2.3-3.9,3.7-5.9c2.2-0.1,4.7-0.2,6.9-0.2s4.7,0.1,6.9,0.2c1.2,1.9,2.6,3.8,3.7,5.9
			c1.1,2,2.2,3.9,3.2,6.2C860.1,135.1,858.9,137.2,857.8,139.2L857.8,139.2z M864.6,103c2.6,1.3,3.6,7.4,1.9,15.1
			c-0.1,0.6-0.2,1-0.3,1.6c-3.1-0.8-6.6-1.2-10.1-1.7c-2-2.9-4.1-5.7-6.4-8.1c0.6-0.6,1.1-1,1.8-1.7
			C856.9,103.6,862.2,101.6,864.6,103L864.6,103z"/>
		<path class="st1" d="M847.3,126.2c3.7,0,6.8,3,6.8,6.8c0,3.7-3,6.8-6.8,6.8s-6.8-3-6.8-6.8C840.5,129.3,843.5,126.2,847.3,126.2"
			/>
	</g>
	<g>
		<polygon class="st3" points="343.1,159.3 337.6,98.4 397.3,98.4 391.8,159.3 367.6,166.1 		"/>
		<polygon class="st4" points="367.6,161 387.2,155.4 391.8,103.4 367.6,103.4 		"/>
		<polygon class="st5" points="367.6,125.9 357.5,125.9 356.9,118.3 367.6,118.3 367.6,111 367.6,111 348.8,111 348.9,112.9 
			350.8,133.6 367.6,133.6 		"/>
		<polygon class="st5" points="367.6,145.5 367.6,145.5 359.1,143.2 358.5,137.3 354.5,137.3 351.1,137.3 352.2,149 367.6,153.2 
			367.6,153.2 		"/>
		<polygon class="st2" points="367.6,125.9 367.6,133.6 376.6,133.6 375.6,143.2 367.6,145.5 367.6,153.2 382.6,149 382.8,147.6 
			384.7,128 384.8,125.9 382.8,125.9 		"/>
		<polygon class="st2" points="367.6,111 367.6,115.6 367.6,118.3 367.6,118.3 385.5,118.3 385.5,118.3 385.5,118.3 385.6,116.7 
			385.8,112.9 386,111 		"/>
	</g>
	<g>
		<polygon class="st6" points="463.5,159.3 458.2,98.9 517.4,98.9 512.1,159.3 487.7,166.1 		"/>
		<polygon class="st7" points="487.7,160.9 507.4,155.5 512.1,103.8 487.7,103.8 		"/>
		<g transform="translate(6.274 16.198)">
			<polygon class="st2" points="481.5,109.5 491.3,109.5 492,102 481.5,102 481.5,94.4 481.5,94.4 499.9,94.4 499.8,96.4 498,117 
				481.5,117 			"/>
			<polygon class="st5" points="481.5,128.9 481.5,128.9 473.2,126.6 472.7,120.7 468.7,120.7 465.3,120.7 466.3,132.3 481.5,136.5 
				481.5,136.5 			"/>
			<polygon class="st2" points="490.7,116.6 489.8,126.6 481.5,128.9 481.5,136.5 496.7,132.3 496.7,131.1 498.1,116.6 			"/>
			<polygon class="st5" points="481.5,94.4 481.5,99 481.5,101.9 481.5,102 463.7,102 463.7,102 463.7,102 463.5,100.4 463,96.4 
				462.8,94.4 			"/>
			<polygon class="st5" points="481.5,109.5 481.5,114.1 481.5,117 481.5,117 473.4,117 473.4,117 473.4,117 473.2,115.4 
				472.8,111.5 472.6,109.5 			"/>
		</g>
	</g>
</g>
<g>
	<path class="st8" d="M641.8,119.2c0-1.1-0.2-2.2-0.7-3c-0.5-0.9-1.2-1.6-2.2-2.1c-8.1-4.7-16.2-9.3-24.3-14
		c-2.2-1.3-4.3-1.2-6.5,0.1c-3.2,1.9-19.3,11.1-24.1,13.9c-2,1.1-2.9,2.9-2.9,5.2c0,9.4,0,18.7,0,28.1c0,1.1,0.2,2.1,0.7,3
		c0.5,0.9,1.2,1.6,2.2,2.2c4.8,2.8,20.9,12,24.1,13.9c2.2,1.3,4.3,1.3,6.5,0.1c8.1-4.7,16.2-9.3,24.3-14c1-0.6,1.7-1.3,2.2-2.2
		c0.5-0.9,0.7-1.9,0.7-3C641.8,147.3,641.8,128.6,641.8,119.2"/>
	<path class="st9" d="M611.5,133.2l-29.7,17.1c0.5,0.9,1.2,1.6,2.2,2.2c4.8,2.8,20.9,12,24.1,13.9c2.2,1.3,4.3,1.3,6.5,0.1
		c8.1-4.7,16.2-9.3,24.3-14c1-0.6,1.7-1.3,2.2-2.2L611.5,133.2"/>
	<path class="st9" d="M602.7,138.2c1.7,3,5,5.1,8.7,5.1c3.8,0,7-2.1,8.7-5.1l-8.7-5L602.7,138.2"/>
	<path class="st10" d="M641.8,119.2c0-1.1-0.2-2.2-0.7-3l-29.5,17l29.6,17.1c0.5-0.9,0.7-1.9,0.7-3
		C641.8,147.3,641.8,128.6,641.8,119.2"/>
	<path class="st2" d="M640.1,134.4h-2.3v2.3h-2.3v-2.3h-2.3v-2.3h2.3v-2.3h2.3v2.3h2.3V134.4 M631.7,134.4h-2.3v2.3h-2.3v-2.3h-2.3
		v-2.3h2.3v-2.3h2.3v2.3h2.3V134.4"/>
	<path class="st2" d="M620.1,138.2c-1.7,3.1-5,5.1-8.7,5.1c-3.7,0-7-2-8.7-5.1c-0.9-1.5-1.3-3.2-1.3-5c0-5.5,4.5-10,10-10
		c3.7,0,6.9,2,8.7,5l8.8-5.1c-3.5-6-10-10.1-17.5-10.1c-11.1,0-20.2,9-20.2,20.2c0,3.7,1,7.1,2.7,10c3.5,6.1,10,10.1,17.5,10.1
		c7.5,0,14-4.1,17.5-10.2L620.1,138.2"/>
</g>
</svg>
